<?xml version="1.0" encoding="UTF-8"?>
<svg width="24px" height="25px" viewBox="0 0 24 25" version="1.1" xmlns="http://www.w3.org/2000/svg" xmlns:xlink="http://www.w3.org/1999/xlink">
    <!-- Generator: Sketch 52.2 (67145) - http://www.bohemiancoding.com/sketch -->
    <title>phone-receiver</title>
    <desc>Created with Sketch.</desc>
    <g id="Page-1" stroke="none" stroke-width="1" fill="none" fill-rule="evenodd">
        <g id="Artboard-Copy-40" transform="translate(-570.000000, -2545.000000)" fill="#FFFFFF">
            <g id="Group-12" transform="translate(-22.000000, 2348.000000)">
                <g id="Group-9" transform="translate(591.000000, 137.000000)">
                    <g id="Group-16" transform="translate(1.000000, 60.000000)">
                        <g id="phone-receiver" transform="translate(0.000000, 0.000000)">
                            <path d="M23.9885604,18.9938492 C24.0394162,19.3848158 23.9206836,19.7247504 23.6328607,20.0136532 L20.2537131,23.3788814 C20.1012703,23.5488487 19.9022894,23.6934459 19.6566872,23.8122981 C19.411085,23.9313169 19.1697588,24.0078022 18.9327086,24.041754 C18.9157706,24.041754 18.8648318,24.0461282 18.7800998,24.0546265 C18.695534,24.0630832 18.5854364,24.0674157 18.4499318,24.0674157 C18.1280251,24.0674157 17.6071376,24.0121763 16.887269,23.9016559 C16.1674005,23.7911355 15.2866617,23.5191461 14.2450526,23.0858127 C13.2031944,22.652396 12.0218046,22.0021877 10.7006756,21.1354376 C9.37954664,20.2687292 7.97364422,19.0788746 6.48309289,17.5661237 C5.29742706,16.3933491 4.31501823,15.2715647 3.5358664,14.2008122 C2.75671457,13.1299763 2.13000549,12.1399166 1.65573916,11.2305914 C1.18143131,10.3212662 0.82573156,9.49692462 0.588598394,8.75756673 C0.351465228,8.01820884 0.190553437,7.38083135 0.10586302,6.84543426 C0.0211726041,6.31003716 -0.0127035625,5.88936802 0.00423452082,5.58342682 C0.0211726041,5.27748563 0.0296416457,5.1075183 0.0296416457,5.07352483 C0.0635178123,4.83557057 0.139739187,4.59336712 0.25830577,4.34691449 C0.376872353,4.10046186 0.520846061,3.90075025 0.690226894,3.74777965 L4.06937451,0.356931395 C4.30650767,0.118977132 4.57751701,0 4.8824025,0 C5.10259759,0 5.29738555,0.0637377491 5.46676638,0.191213247 C5.63614721,0.318688746 5.78012092,0.475908527 5.8986875,0.662872591 L8.61724987,5.83837782 C8.76969262,6.11032555 8.81203783,6.40776838 8.74428549,6.73070631 C8.67653316,7.05364424 8.53255945,7.32559197 8.31236437,7.5465495 L7.06741525,8.79580938 C7.03353908,8.82980285 7.00389744,8.88504223 6.97849031,8.96152753 C6.95308319,9.03801283 6.94037962,9.10175058 6.94037962,9.15274078 C7.00813196,9.50967217 7.16057471,9.91759376 7.39770787,10.3765056 C7.60096487,10.7844272 7.91431941,11.2815816 8.33777149,11.8679689 C8.76122358,12.4543562 9.36252553,13.1299347 10.1416774,13.8947877 C10.9038911,14.6767207 11.5814144,15.2842706 12.1742474,15.7177706 C12.7669557,16.1510207 13.2625607,16.4698344 13.6606057,16.6737952 C14.0586506,16.877756 14.3635361,17.0009823 14.5752207,17.0433491 L14.8927267,17.1071285 C14.9266029,17.1071285 14.9817762,17.0943393 15.0579145,17.0688859 C15.1341359,17.0433491 15.1891847,17.0136465 15.2231023,16.9796114 L16.671267,15.5008956 C16.9763185,15.2289895 17.3318522,15.0930157 17.7384077,15.0930157 C18.0264382,15.0930157 18.2549777,15.1439642 18.4243586,15.2459863 L18.4497242,15.2459863 L23.3532578,18.1524276 C23.7090821,18.3735518 23.9207666,18.6539146 23.9885604,18.9938492 Z" id="Path"></path>
                        </g>
                    </g>
                </g>
            </g>
        </g>
    </g>
</svg>