<?xml version="1.0" encoding="UTF-8"?>
<svg width="71px" height="71px" viewBox="0 0 71 71" version="1.1" xmlns="http://www.w3.org/2000/svg" xmlns:xlink="http://www.w3.org/1999/xlink">
    <!-- Generator: Sketch 53.2 (72643) - https://sketchapp.com -->
    <title>Group 9</title>
    <desc>Created with Sketch.</desc>
    <g id="Page-1" stroke="none" stroke-width="1" fill="none" fill-rule="evenodd">
        <g id="ts-new-copy-6" transform="translate(-32.000000, -32.000000)" fill-rule="nonzero">
            <g id="ts-logo" transform="translate(32.000000, 32.000000)">
                <g id="Group-9">
                    <path d="M8,0 L63,0 C67.418278,-8.11624501e-16 71,3.581722 71,8 L71,63 C71,67.418278 67.418278,71 63,71 L8,71 C3.581722,71 5.41083001e-16,67.418278 0,63 L0,8 C-5.41083001e-16,3.581722 3.581722,8.11624501e-16 8,0 Z" id="Rectangle" fill="#F1F0F0"></path>
                    <g id="Group-2" transform="translate(7.000000, 10.000000)">
                        <polygon id="Combined-Shape" fill="#6164E4" points="57.9072 0 29.2676923 0 29.2676923 8.50803859 54.2538941 8.50803859"></polygon>
                        <g id="Group">
                            <polygon id="T" fill="#6164E4" points="40.5821539 0.0260450161 40.5821539 8.54276527 25.9661539 8.54276527 25.9661539 51.0482315 14.8033847 51.0482315 14.8033847 8.54276527 0.107076923 8.54276527 0.107076923 0.0260450161"></polygon>
                            <path d="M25.8769231,50.9946557 C26.5012906,51.2974635 27.1422351,51.576814 27.7997569,51.8327074 C31.2425947,53.1725855 34.7266943,53.8425145 38.25216,53.8425145 C40.6759177,53.8425145 43.0170123,53.5343471 45.2755139,52.9180032 C47.5340154,52.3016594 49.5446024,51.3637587 51.3073353,50.1042734 C53.0700683,48.8447879 54.4884961,47.2369584 55.5626616,45.2807363 C56.6368269,43.3245142 57.1739016,40.9797629 57.1739016,38.2464116 C57.1739016,35.4594651 56.6781404,33.1549094 55.6866031,31.3326752 C54.6950658,29.5104411 53.4143494,28.0098002 51.8444153,26.8307074 C50.2744814,25.6516146 48.525546,24.6869169 46.5975569,23.9365852 C44.6695679,23.1862535 42.7691498,22.5163245 40.8962461,21.9267782 C39.6292818,21.4980171 38.4587345,21.0826612 37.3845692,20.6806977 C36.3104039,20.2787343 35.3877372,19.809784 34.6165416,19.2738328 C33.8453459,18.7378816 33.2531868,18.1215469 32.8400461,17.4248103 C32.4269055,16.7280737 32.2203384,15.8973617 32.2203384,14.9326496 C32.2203384,13.0568203 32.7436419,11.8375494 33.7902647,11.2748007 C34.8368873,10.7120519 36.43434,10.4306817 38.5826708,10.4306817 C40.5657454,10.4306817 42.6727303,10.8594363 44.9036892,11.7169582 C47.1346482,12.5744801 49.2967178,13.7803524 51.3899631,15.334611 L55.43872,5.84832155 C53.1251331,4.18687263 50.5499291,2.87381193 47.7130308,1.90909968 C44.8761325,0.944387421 41.970421,0.462038585 38.9958092,0.462038585 C36.6822223,0.462038585 34.4512968,0.743408797 32.3029661,1.30615755 C30.1546355,1.86890631 28.2542174,2.75321258 26.6016553,3.95910289 C24.9490933,5.16499321 23.6270635,6.71922851 22.6355261,8.62185531 C21.6439889,10.5244821 21.1482277,12.8156392 21.1482277,15.4953955 C21.1482277,18.1751516 21.6026756,20.3859173 22.5115847,22.1277589 C23.4204937,23.8696004 24.6185832,25.3300455 26.1058892,26.5091383 C27.5931952,27.688231 29.2732747,28.6395301 31.1461784,29.3630643 C33.0190822,30.0865985 34.8919578,30.7431289 36.7648616,31.3326752 C38.0869112,31.7614363 39.2987719,32.1901908 40.40048,32.6189518 C41.5021881,33.0477129 42.4661682,33.5568589 43.2924492,34.1464052 C44.1187303,34.7359514 44.7522029,35.4326777 45.1928861,36.2366045 C45.6335694,37.0405313 45.8539077,38.0052292 45.8539077,39.1307266 C45.7988224,41.1137463 45.1515785,42.426807 43.9121569,43.0699486 C42.6727353,43.7130901 40.8962577,44.0346559 38.5826708,44.0346559 C35.9936568,44.0346559 33.2807414,43.3915241 30.4438431,42.1052411 C28.8276677,41.3724483 27.3053659,40.4744153 25.8769231,39.4111323 L25.8769231,50.9946557 Z" id="Combined-Shape" fill="#787AF4"></path>
                        </g>
                    </g>
                </g>
            </g>
        </g>
    </g>
</svg>