<?xml version="1.0" encoding="UTF-8"?>
<svg width="24px" height="24px" viewBox="0 0 24 24" version="1.1" xmlns="http://www.w3.org/2000/svg" xmlns:xlink="http://www.w3.org/1999/xlink">
    <!-- Generator: Sketch 52.2 (67145) - http://www.bohemiancoding.com/sketch -->
    <title>whatsapp</title>
    <desc>Created with Sketch.</desc>
    <g id="Page-1" stroke="none" stroke-width="1" fill="none" fill-rule="evenodd">
        <g id="Artboard-Copy-40" transform="translate(-570.000000, -2577.000000)">
            <g id="Group-12" transform="translate(-22.000000, 2348.000000)">
                <g id="Group-9" transform="translate(591.000000, 137.000000)">
                    <g id="Group-17" transform="translate(1.000000, 92.000000)">
                        <g id="whatsapp">
                            <path d="M12.003,0 L11.997,0 C5.3805,0 0,5.382 0,12 C0,14.625 0.846,17.058 2.2845,19.0335 L0.789,23.4915 L5.4015,22.017 C7.299,23.274 9.5625,24 12.003,24 C18.6195,24 24,18.6165 24,12 C24,5.3835 18.6195,0 12.003,0 Z" id="Path" fill="#FFFFFF"></path>
                            <path d="M18.9855,15.9455 C18.696,16.763 17.547,17.441 16.6305,17.639 C16.0035,17.7725 15.1845,17.879 12.4275,16.736 C8.901,15.275 6.63,11.6915 6.453,11.459 C6.2835,11.2265 5.028,9.5615 5.028,7.8395 C5.028,6.1175 5.9025,5.279 6.255,4.919 C6.5445,4.6235 7.023,4.4885 7.482,4.4885 C7.6305,4.4885 7.764,4.496 7.884,4.502 C8.2365,4.517 8.4135,4.538 8.646,5.0945 C8.9355,5.792 9.6405,7.514 9.7245,7.691 C9.81,7.868 9.8955,8.108 9.7755,8.3405 C9.663,8.5805 9.564,8.687 9.387,8.891 C9.21,9.095 9.042,9.251 8.865,9.47 C8.703,9.6605 8.52,9.8645 8.724,10.217 C8.928,10.562 9.633,11.7125 10.671,12.6365 C12.0105,13.829 13.0965,14.21 13.485,14.372 C13.7745,14.492 14.1195,14.4635 14.331,14.2385 C14.5995,13.949 14.931,13.469 15.2685,12.9965 C15.5085,12.6575 15.8115,12.6155 16.1295,12.7355 C16.4535,12.848 18.168,13.6955 18.5205,13.871 C18.873,14.048 19.1055,14.132 19.191,14.2805 C19.275,14.429 19.275,15.1265 18.9855,15.9455 Z" id="Path" fill="#000000"></path>
                        </g>
                    </g>
                </g>
            </g>
        </g>
    </g>
</svg>